<svg width="20" height="20" viewBox="0 0 20 20" fill="none" xmlns="http://www.w3.org/2000/svg">
<path d="M15.0001 10.8318L17.5001 13.3318V16.6651C17.5001 17.5901 16.7501 18.3318 15.8334 18.3318H4.16673C3.24173 18.3318 2.50006 17.5818 2.50006 16.6651V13.3318L5.00006 10.8318H5.69173L7.35839 12.4984H5.65006L4.16673 14.1651H15.8334L14.3584 12.4984H12.7667L14.4334 10.8318H15.0001ZM15.8334 16.6651V15.8318H4.16673V16.6651H15.8334ZM9.45006 12.4984L5.32506 8.39011C5.00006 8.06511 5.00006 7.54011 5.32506 7.21511L10.6334 1.90678C10.9584 1.58178 11.4834 1.58178 11.8001 1.91511L15.9251 6.04011C16.2501 6.36511 16.2501 6.89011 15.9251 7.21511L10.6251 12.4984C10.3001 12.8401 9.77506 12.8401 9.45006 12.4984ZM11.2167 3.67345L7.08339 7.79845L10.0417 10.7484L14.1667 6.62345L11.2167 3.67345Z" fill="#64748B"/>
</svg>
