<svg width="32" height="34" viewBox="0 0 32 34" fill="none" xmlns="http://www.w3.org/2000/svg">
<rect width="32" height="34" rx="16" fill="#F1F5F9"/>
<path d="M16 16C18.2091 16 20 14.2091 20 12C20 9.79086 18.2091 8 16 8C13.7909 8 12 9.79086 12 12C12 14.2091 13.7909 16 16 16Z" stroke="black" stroke-width="2" stroke-linecap="round" stroke-linejoin="round"/>
<path d="M24 26V24C24 22.9391 23.5786 21.9217 22.8284 21.1716C22.0783 20.4214 21.0609 20 20 20H12C10.9391 20 9.92172 20.4214 9.17157 21.1716C8.42143 21.9217 8 22.9391 8 24V26" stroke="black" stroke-width="2" stroke-linecap="round" stroke-linejoin="round"/>
</svg>
