<svg width="35" height="35" viewBox="0 0 35 35" fill="none" xmlns="http://www.w3.org/2000/svg">
<rect width="34.9787" height="34.9787" rx="17.4894" fill="#009699"/>
<g clip-path="url(#clip0_420_2644)">
<path d="M12.5499 25.5442H23.2843C24.7019 25.5442 25.3766 25.1172 25.3766 24.1778C25.3766 21.9404 22.5499 18.7039 17.9214 18.7039C13.2843 18.7039 10.4576 21.9404 10.4576 24.1778C10.4576 25.1172 11.1323 25.5442 12.5499 25.5442ZM12.1485 24.2547C11.9265 24.2547 11.8325 24.195 11.8325 24.0156C11.8325 22.6066 14.0016 19.9934 17.9214 19.9934C21.8326 19.9934 24.0016 22.6066 24.0016 24.0156C24.0016 24.195 23.9163 24.2547 23.6942 24.2547H12.1485ZM17.9214 17.6365C19.9538 17.6365 21.6105 15.8345 21.6105 13.6313C21.6105 11.4451 19.9624 9.72864 17.9214 9.72864C15.8974 9.72864 14.2322 11.4793 14.2322 13.6484C14.2322 15.8431 15.8889 17.6365 17.9214 17.6365ZM17.9214 16.3469C16.6746 16.3469 15.6071 15.1599 15.6071 13.6484C15.6071 12.1625 16.6575 11.0181 17.9214 11.0181C19.1938 11.0181 20.2357 12.1368 20.2357 13.6313C20.2357 15.1428 19.1767 16.3469 17.9214 16.3469Z" fill="white"/>
</g>
<defs>
<clipPath id="clip0_420_2644">
<rect width="14.9189" height="15.8241" fill="white" transform="translate(10.4576 9.72864)"/>
</clipPath>
</defs>
</svg>
