<svg width="24" height="24" viewBox="0 0 24 24" fill="none" xmlns="http://www.w3.org/2000/svg">
<path d="M12 5L11.4343 4.43431L12 3.86863L12.5657 4.43431L12 5ZM12.8 14C12.8 14.4418 12.4418 14.8 12 14.8C11.5582 14.8 11.2 14.4418 11.2 14L12 14L12.8 14ZM7 10L6.43431 9.43431L11.4343 4.43431L12 5L12.5657 5.56569L7.56569 10.5657L7 10ZM12 5L12.5657 4.43431L17.5657 9.43431L17 10L16.4343 10.5657L11.4343 5.56569L12 5ZM12 5L12.8 5L12.8 14L12 14L11.2 14L11.2 5L12 5Z" fill="white"/>
<path d="M5 16L5 17C5 18.1046 5.89543 19 7 19L17 19C18.1046 19 19 18.1046 19 17V16" stroke="white" stroke-width="1.6"/>
</svg>
