<svg width="40" height="40" viewBox="0 0 40 40" fill="none" xmlns="http://www.w3.org/2000/svg">
<path d="M30.0001 21.6636L35.0001 26.6636V33.3302C35.0001 35.1802 33.5001 36.6636 31.6668 36.6636H8.33346C6.48346 36.6636 5.00012 35.1636 5.00012 33.3302V26.6636L10.0001 21.6636H11.3835L14.7168 24.9969H11.3001L8.33346 28.3302H31.6668L28.7168 24.9969H25.5335L28.8668 21.6636H30.0001ZM31.6668 33.3302V31.6636H8.33346V33.3302H31.6668ZM18.9001 24.9969L10.6501 16.7802C10.0001 16.1302 10.0001 15.0802 10.6501 14.4302L21.2668 3.81356C21.9168 3.16356 22.9668 3.16356 23.6001 3.83023L31.8501 12.0802C32.5001 12.7302 32.5001 13.7802 31.8501 14.4302L21.2501 24.9969C20.6001 25.6802 19.5501 25.6802 18.9001 24.9969ZM22.4335 7.34689L14.1668 15.5969L20.0835 21.4969L28.3335 13.2469L22.4335 7.34689Z" fill="#64748B"/>
</svg>
